<mxfile host="app.diagrams.net" agent="Mozilla/5.0 (Windows NT 10.0; Win64; x64) AppleWebKit/537.36 (KHTML, like Gecko) Chrome/137.0.0.0 Safari/537.36" version="27.1.6">
  <diagram name="Página-1" id="qzINCbVRYpWrzS9apjGb">
    <mxGraphModel grid="1" page="1" gridSize="1" guides="1" tooltips="1" connect="1" arrows="1" fold="1" pageScale="1" pageWidth="2339" pageHeight="3300" background="#ffffff" math="0" shadow="0">
      <root>
        <mxCell id="0" />
        <mxCell id="1" parent="0" />
        <mxCell id="0Md8G2TJmSjx7K0ggYOx-1" value="" style="rounded=0;whiteSpace=wrap;html=1;" vertex="1" parent="1">
          <mxGeometry x="560" y="150" width="330" height="390" as="geometry" />
        </mxCell>
        <mxCell id="0Md8G2TJmSjx7K0ggYOx-2" value="Sistema" style="text;html=1;align=center;verticalAlign=middle;whiteSpace=wrap;rounded=0;" vertex="1" parent="1">
          <mxGeometry x="570" y="160" width="60" height="30" as="geometry" />
        </mxCell>
        <mxCell id="0Md8G2TJmSjx7K0ggYOx-3" value="&lt;font style=&quot;font-size: 18px;&quot;&gt;Entrenamiento del Modelo&lt;/font&gt;" style="text;html=1;align=center;verticalAlign=middle;whiteSpace=wrap;rounded=0;" vertex="1" parent="1">
          <mxGeometry x="590" y="60" width="280" height="80" as="geometry" />
        </mxCell>
        <mxCell id="0Md8G2TJmSjx7K0ggYOx-6" style="rounded=0;orthogonalLoop=1;jettySize=auto;html=1;exitX=0.5;exitY=0.5;exitDx=0;exitDy=0;exitPerimeter=0;endArrow=none;endFill=0;startFill=0;" edge="1" parent="1" source="0Md8G2TJmSjx7K0ggYOx-4" target="0Md8G2TJmSjx7K0ggYOx-5">
          <mxGeometry relative="1" as="geometry" />
        </mxCell>
        <mxCell id="0Md8G2TJmSjx7K0ggYOx-4" value="Usuario" style="shape=umlActor;verticalLabelPosition=bottom;verticalAlign=top;html=1;outlineConnect=0;" vertex="1" parent="1">
          <mxGeometry x="460" y="260" width="30" height="60" as="geometry" />
        </mxCell>
        <mxCell id="0Md8G2TJmSjx7K0ggYOx-5" value="Docker Run&lt;div&gt;mode=train&lt;/div&gt;" style="ellipse;whiteSpace=wrap;html=1;" vertex="1" parent="1">
          <mxGeometry x="690" y="180" width="120" height="80" as="geometry" />
        </mxCell>
        <mxCell id="0Md8G2TJmSjx7K0ggYOx-10" style="rounded=0;orthogonalLoop=1;jettySize=auto;html=1;exitX=0.5;exitY=1;exitDx=0;exitDy=0;endArrow=block;endFill=0;strokeWidth=2;dashed=1;" edge="1" parent="1" source="0Md8G2TJmSjx7K0ggYOx-7" target="0Md8G2TJmSjx7K0ggYOx-9">
          <mxGeometry relative="1" as="geometry" />
        </mxCell>
        <mxCell id="0Md8G2TJmSjx7K0ggYOx-11" style="rounded=0;orthogonalLoop=1;jettySize=auto;html=1;exitX=0.5;exitY=0;exitDx=0;exitDy=0;endArrow=block;endFill=0;strokeWidth=2;dashed=1;" edge="1" parent="1" source="0Md8G2TJmSjx7K0ggYOx-7" target="0Md8G2TJmSjx7K0ggYOx-5">
          <mxGeometry relative="1" as="geometry" />
        </mxCell>
        <mxCell id="0Md8G2TJmSjx7K0ggYOx-7" value="Docker stop" style="ellipse;whiteSpace=wrap;html=1;" vertex="1" parent="1">
          <mxGeometry x="590" y="320" width="120" height="80" as="geometry" />
        </mxCell>
        <mxCell id="0Md8G2TJmSjx7K0ggYOx-9" value="Docker start" style="ellipse;whiteSpace=wrap;html=1;" vertex="1" parent="1">
          <mxGeometry x="730" y="430" width="120" height="80" as="geometry" />
        </mxCell>
        <mxCell id="0Md8G2TJmSjx7K0ggYOx-12" value="&amp;lt;&amp;lt;extends&amp;gt;&amp;gt;" style="text;html=1;align=center;verticalAlign=middle;whiteSpace=wrap;rounded=0;" vertex="1" parent="1">
          <mxGeometry x="695" y="280" width="60" height="30" as="geometry" />
        </mxCell>
        <mxCell id="0Md8G2TJmSjx7K0ggYOx-13" value="&amp;lt;&amp;lt;include&amp;gt;&amp;gt;" style="text;html=1;align=center;verticalAlign=middle;whiteSpace=wrap;rounded=0;" vertex="1" parent="1">
          <mxGeometry x="700" y="390" width="60" height="30" as="geometry" />
        </mxCell>
        <mxCell id="0Md8G2TJmSjx7K0ggYOx-15" value="" style="rounded=0;whiteSpace=wrap;html=1;" vertex="1" parent="1">
          <mxGeometry x="1200" y="235" width="220" height="190" as="geometry" />
        </mxCell>
        <mxCell id="0Md8G2TJmSjx7K0ggYOx-16" value="Sistema" style="text;html=1;align=center;verticalAlign=middle;whiteSpace=wrap;rounded=0;" vertex="1" parent="1">
          <mxGeometry x="1210" y="245" width="60" height="30" as="geometry" />
        </mxCell>
        <mxCell id="0Md8G2TJmSjx7K0ggYOx-17" value="&lt;font style=&quot;font-size: 18px;&quot;&gt;Evaluación del Modelo&lt;/font&gt;" style="text;html=1;align=center;verticalAlign=middle;whiteSpace=wrap;rounded=0;" vertex="1" parent="1">
          <mxGeometry x="1180" y="165" width="280" height="80" as="geometry" />
        </mxCell>
        <mxCell id="0Md8G2TJmSjx7K0ggYOx-18" style="rounded=0;orthogonalLoop=1;jettySize=auto;html=1;exitX=0.5;exitY=0.5;exitDx=0;exitDy=0;exitPerimeter=0;endArrow=none;endFill=0;startFill=0;" edge="1" parent="1" source="0Md8G2TJmSjx7K0ggYOx-19" target="0Md8G2TJmSjx7K0ggYOx-20">
          <mxGeometry relative="1" as="geometry" />
        </mxCell>
        <mxCell id="0Md8G2TJmSjx7K0ggYOx-19" value="Usuario" style="shape=umlActor;verticalLabelPosition=bottom;verticalAlign=top;html=1;outlineConnect=0;" vertex="1" parent="1">
          <mxGeometry x="1130" y="286" width="30" height="60" as="geometry" />
        </mxCell>
        <mxCell id="0Md8G2TJmSjx7K0ggYOx-20" value="Docker Run&lt;div&gt;mode=eval&lt;/div&gt;" style="ellipse;whiteSpace=wrap;html=1;" vertex="1" parent="1">
          <mxGeometry x="1250" y="275" width="120" height="80" as="geometry" />
        </mxCell>
      </root>
    </mxGraphModel>
  </diagram>
</mxfile>
